HIERARCHY
ROOT newVegas:Hips
{
	OFFSET 0.000000 96.479958 0.000000
	CHANNELS 6 Xposition Yposition Zposition Xrotation Yrotation Zrotation
	JOINT newVegas:Pelvis
	{
		OFFSET 0.000000 0.000000 0.000000
		CHANNELS 3 Xrotation Yrotation Zrotation
		JOINT newVegas:LeftUpLeg
		{
			OFFSET 18.735201 -5.666702 -4.541200
			CHANNELS 3 Xrotation Yrotation Zrotation
			JOINT newVegas:LeftLeg
			{
				OFFSET -0.021200 -31.938179 0.493100
				CHANNELS 3 Xrotation Yrotation Zrotation
				JOINT newVegas:LeftFoot
				{
					OFFSET 0.021200 -31.938179 -4.336299
					CHANNELS 3 Xrotation Yrotation Zrotation
					JOINT newVegas:LeftToeBase
					{
						OFFSET 0.943001 -26.722000 15.023500
						CHANNELS 3 Xrotation Yrotation Zrotation
						End Site
						{
							OFFSET 0.000000 30.670183 0.000000
						}
					}
				}
				JOINT newVegas:Left_PantLeg
				{
					OFFSET 0.663870 -9.044666 -1.108900
					CHANNELS 3 Xrotation Yrotation Zrotation
					End Site
					{
						OFFSET 1.415995 20.635357 0.000000
					}
				}
			}
		}
		JOINT newVegas:RightUpLeg
		{
			OFFSET -18.735201 -5.666702 -4.541200
			CHANNELS 3 Xrotation Yrotation Zrotation
			JOINT newVegas:RightLeg
			{
				OFFSET 0.018946 -31.938133 0.493100
				CHANNELS 3 Xrotation Yrotation Zrotation
				JOINT newVegas:RightFoot
				{
					OFFSET -0.018946 -31.938126 -4.336299
					CHANNELS 3 Xrotation Yrotation Zrotation
					JOINT newVegas:RightToeBase
					{
						OFFSET -0.943001 -26.722004 15.023500
						CHANNELS 3 Xrotation Yrotation Zrotation
						End Site
						{
							OFFSET 0.000000 30.670187 0.000000
						}
					}
				}
				JOINT newVegas:Right_PantLeg
				{
					OFFSET -0.661674 -9.044716 -1.108900
					CHANNELS 3 Xrotation Yrotation Zrotation
					End Site
					{
						OFFSET -1.415958 20.635269 0.000000
					}
				}
			}
		}
	}
	JOINT newVegas:Spine
	{
		OFFSET 0.000000 10.199997 -0.299500
		CHANNELS 3 Xrotation Yrotation Zrotation
		JOINT newVegas:Spine1
		{
			OFFSET 0.000000 11.900002 -1.516600
			CHANNELS 3 Xrotation Yrotation Zrotation
			JOINT newVegas:Spine2
			{
				OFFSET 0.000000 13.600006 -2.842500
				CHANNELS 3 Xrotation Yrotation Zrotation
				JOINT newVegas:Neck
				{
					OFFSET 0.000000 9.624100 -2.890100
					CHANNELS 3 Xrotation Yrotation Zrotation
					JOINT newVegas:Head
					{
						OFFSET 0.000000 14.068802 -1.351900
						CHANNELS 3 Xrotation Yrotation Zrotation
						JOINT newVegas:Hair_Back
						{
							OFFSET 0.000000 3.231903 -17.524799
							CHANNELS 3 Xrotation Yrotation Zrotation
							End Site
							{
								OFFSET 0.000000 19.849884 0.000000
							}
						}
						JOINT newVegas:Hair_Front
						{
							OFFSET 0.000000 31.260406 4.573800
							CHANNELS 3 Xrotation Yrotation Zrotation
							JOINT newVegas:Hair_Front1
							{
								OFFSET 0.000000 2.284103 11.993300
								CHANNELS 3 Xrotation Yrotation Zrotation
								JOINT newVegas:Hair_Front2
								{
									OFFSET 0.000000 2.284103 11.993300
									CHANNELS 3 Xrotation Yrotation Zrotation
									End Site
									{
										OFFSET 0.000000 12.208862 0.000000
									}
								}
							}
						}
						JOINT newVegas:Jowel
						{
							OFFSET 0.000000 -7.458206 6.864100
							CHANNELS 3 Xrotation Yrotation Zrotation
							End Site
							{
								OFFSET 0.000000 19.849884 0.000000
							}
						}
					}
				}
				JOINT newVegas:LeftShoulder
				{
					OFFSET 15.263000 10.923401 -0.547700
					CHANNELS 3 Xrotation Yrotation Zrotation
					JOINT newVegas:LeftArm
					{
						OFFSET 25.438599 -2.830597 -13.032500
						CHANNELS 3 Xrotation Yrotation Zrotation
						JOINT newVegas:LeftForeArm
						{
							OFFSET 29.960503 0.000000 0.000000
							CHANNELS 3 Xrotation Yrotation Zrotation
							JOINT newVegas:LeftHand
							{
								OFFSET 27.849251 0.000000 0.000000
								CHANNELS 3 Xrotation Yrotation Zrotation
								JOINT newVegas:LeftHandThumb1
								{
									OFFSET 4.487587 -3.305161 6.305391
									CHANNELS 3 Xrotation Yrotation Zrotation
									JOINT newVegas:LeftHandThumb2
									{
										OFFSET 5.480453 -3.164139 3.164143
										CHANNELS 3 Xrotation Yrotation Zrotation
										JOINT newVegas:LeftHandThumb3
										{
											OFFSET 5.159721 -2.978973 2.978967
											CHANNELS 3 Xrotation Yrotation Zrotation
											End Site
											{
												OFFSET 2.494507 5.926697 1.738678
											}
										}
									}
								}
								JOINT newVegas:LeftHandIndex1
								{
									OFFSET 18.578728 -0.527832 5.208049
									CHANNELS 3 Xrotation Yrotation Zrotation
									JOINT newVegas:LeftHandIndex2
									{
										OFFSET 3.192009 0.000000 0.000000
										CHANNELS 3 Xrotation Yrotation Zrotation
										JOINT newVegas:LeftHandIndex3
										{
											OFFSET 3.835129 0.000000 0.000000
											CHANNELS 3 Xrotation Yrotation Zrotation
											End Site
											{
												OFFSET -0.034599 3.816971 0.371180
											}
										}
									}
								}
								JOINT newVegas:LeftHandMiddle1
								{
									OFFSET 18.476105 0.000000 0.000000
									CHANNELS 3 Xrotation Yrotation Zrotation
									JOINT newVegas:LeftHandMiddle2
									{
										OFFSET 3.324875 0.000000 0.000000
										CHANNELS 3 Xrotation Yrotation Zrotation
										JOINT newVegas:LeftHandMiddle3
										{
											OFFSET 4.596550 0.000000 0.000000
											CHANNELS 3 Xrotation Yrotation Zrotation
											End Site
											{
												OFFSET 0.057701 4.578827 0.399218
											}
										}
									}
								}
								JOINT newVegas:LeftHandRing1
								{
									OFFSET 17.732719 0.121887 -4.201567
									CHANNELS 3 Xrotation Yrotation Zrotation
									JOINT newVegas:LeftHandRing2
									{
										OFFSET 2.733170 0.000000 0.000000
										CHANNELS 3 Xrotation Yrotation Zrotation
										JOINT newVegas:LeftHandRing3
										{
											OFFSET 3.178268 0.000000 0.000000
											CHANNELS 3 Xrotation Yrotation Zrotation
											End Site
											{
												OFFSET 0.119102 3.170624 0.185394
											}
										}
									}
								}
								JOINT newVegas:LeftHandPinky1
								{
									OFFSET 15.989624 -0.606689 -7.535461
									CHANNELS 3 Xrotation Yrotation Zrotation
									JOINT newVegas:LeftHandPinky2
									{
										OFFSET 2.538986 0.000000 0.000000
										CHANNELS 3 Xrotation Yrotation Zrotation
										JOINT newVegas:LeftHandPinky3
										{
											OFFSET 2.593102 0.000000 0.000000
											CHANNELS 3 Xrotation Yrotation Zrotation
											End Site
											{
												OFFSET -0.150902 2.584198 0.152708
											}
										}
									}
								}
							}
							JOINT newVegas:Left_Sleeve
							{
								OFFSET 0.267448 -0.649796 0.577675
								CHANNELS 3 Xrotation Yrotation Zrotation
								End Site
								{
									OFFSET 0.000000 15.991241 0.000000
								}
							}
							JOINT newVegas:Left_CapeC
							{
								OFFSET 15.715958 -8.608795 -6.935905
								CHANNELS 3 Xrotation Yrotation Zrotation
								JOINT newVegas:Left_CapeC1
								{
									OFFSET 0.000000 -8.688499 0.000000
									CHANNELS 3 Xrotation Yrotation Zrotation
									End Site
									{
										OFFSET 0.000000 8.688499 0.000000
									}
								}
							}
						}
						JOINT newVegas:Left_CapeB
						{
							OFFSET 26.118385 -8.608795 -7.079235
							CHANNELS 3 Xrotation Yrotation Zrotation
							JOINT newVegas:Left_CapeB1
							{
								OFFSET 0.000000 -8.688499 0.000000
								CHANNELS 3 Xrotation Yrotation Zrotation
								End Site
								{
									OFFSET 0.000000 8.688499 0.000000
								}
							}
						}
						JOINT newVegas:Left_CapeA
						{
							OFFSET 5.115639 -8.608795 -10.395809
							CHANNELS 3 Xrotation Yrotation Zrotation
							JOINT newVegas:Left_CapeA1
							{
								OFFSET 0.000000 -8.688499 0.000000
								CHANNELS 3 Xrotation Yrotation Zrotation
								End Site
								{
									OFFSET 0.000000 8.688499 0.000000
								}
							}
						}
					}
				}
				JOINT newVegas:RightShoulder
				{
					OFFSET -15.263000 10.923401 -0.547700
					CHANNELS 3 Xrotation Yrotation Zrotation
					JOINT newVegas:RightArm
					{
						OFFSET -25.438599 -2.830597 -13.032500
						CHANNELS 3 Xrotation Yrotation Zrotation
						JOINT newVegas:RightForeArm
						{
							OFFSET -29.960503 0.000000 0.000000
							CHANNELS 3 Xrotation Yrotation Zrotation
							JOINT newVegas:RightHand
							{
								OFFSET -27.849251 0.000000 0.000000
								CHANNELS 3 Xrotation Yrotation Zrotation
								JOINT newVegas:RightHandThumb1
								{
									OFFSET -4.487587 -3.305161 6.305391
									CHANNELS 3 Xrotation Yrotation Zrotation
									JOINT newVegas:RightHandThumb2
									{
										OFFSET -5.480453 -3.164139 3.164143
										CHANNELS 3 Xrotation Yrotation Zrotation
										JOINT newVegas:RightHandThumb3
										{
											OFFSET -5.159721 -2.978973 2.978967
											CHANNELS 3 Xrotation Yrotation Zrotation
											End Site
											{
												OFFSET -2.494507 5.926697 1.738678
											}
										}
									}
								}
								JOINT newVegas:RightHandIndex1
								{
									OFFSET -18.578728 -0.527832 5.208049
									CHANNELS 3 Xrotation Yrotation Zrotation
									JOINT newVegas:RightHandIndex2
									{
										OFFSET -3.192009 0.000000 0.000000
										CHANNELS 3 Xrotation Yrotation Zrotation
										JOINT newVegas:RightHandIndex3
										{
											OFFSET -3.835129 0.000000 0.000000
											CHANNELS 3 Xrotation Yrotation Zrotation
											End Site
											{
												OFFSET 0.034599 3.816971 0.371180
											}
										}
									}
								}
								JOINT newVegas:RightHandMiddle1
								{
									OFFSET -18.476105 0.000000 0.000000
									CHANNELS 3 Xrotation Yrotation Zrotation
									JOINT newVegas:RightHandMiddle2
									{
										OFFSET -3.324875 0.000000 0.000000
										CHANNELS 3 Xrotation Yrotation Zrotation
										JOINT newVegas:RightHandMiddle3
										{
											OFFSET -4.596550 0.000000 0.000000
											CHANNELS 3 Xrotation Yrotation Zrotation
											End Site
											{
												OFFSET -0.057701 4.578827 0.399218
											}
										}
									}
								}
								JOINT newVegas:RightHandRing1
								{
									OFFSET -17.732719 0.121887 -4.201567
									CHANNELS 3 Xrotation Yrotation Zrotation
									JOINT newVegas:RightHandRing2
									{
										OFFSET -2.733170 0.000000 0.000000
										CHANNELS 3 Xrotation Yrotation Zrotation
										JOINT newVegas:RightHandRing3
										{
											OFFSET -3.178268 0.000000 0.000000
											CHANNELS 3 Xrotation Yrotation Zrotation
											End Site
											{
												OFFSET -0.119102 3.170624 0.185394
											}
										}
									}
								}
								JOINT newVegas:RightHandPinky1
								{
									OFFSET -15.989624 -0.606689 -7.535461
									CHANNELS 3 Xrotation Yrotation Zrotation
									JOINT newVegas:RightHandPinky2
									{
										OFFSET -2.538986 0.000000 0.000000
										CHANNELS 3 Xrotation Yrotation Zrotation
										JOINT newVegas:RightHandPinky3
										{
											OFFSET -2.593102 0.000000 0.000000
											CHANNELS 3 Xrotation Yrotation Zrotation
											End Site
											{
												OFFSET 0.150902 2.584198 0.152708
											}
										}
									}
								}
							}
							JOINT newVegas:Right_CapeC
							{
								OFFSET -15.715958 -8.608795 -6.935905
								CHANNELS 3 Xrotation Yrotation Zrotation
								JOINT newVegas:Right_CapeC1
								{
									OFFSET 0.000000 -8.688499 0.000000
									CHANNELS 3 Xrotation Yrotation Zrotation
									End Site
									{
										OFFSET 0.000000 8.688499 0.000000
									}
								}
							}
							JOINT newVegas:Right_Sleeve
							{
								OFFSET -0.267448 -0.649994 0.577675
								CHANNELS 3 Xrotation Yrotation Zrotation
								End Site
								{
									OFFSET 0.000000 15.991302 0.000000
								}
							}
						}
						JOINT newVegas:Right_CapeA
						{
							OFFSET -5.115540 -8.608795 -10.395824
							CHANNELS 3 Xrotation Yrotation Zrotation
							JOINT newVegas:Right_CapeA1
							{
								OFFSET 0.000000 -8.688499 0.000000
								CHANNELS 3 Xrotation Yrotation Zrotation
								End Site
								{
									OFFSET 0.000000 8.688499 0.000000
								}
							}
						}
						JOINT newVegas:Right_CapeB
						{
							OFFSET -26.118187 -8.608795 -7.079266
							CHANNELS 3 Xrotation Yrotation Zrotation
							JOINT newVegas:Right_CapeB1
							{
								OFFSET 0.000000 -8.688499 0.000000
								CHANNELS 3 Xrotation Yrotation Zrotation
								End Site
								{
									OFFSET 0.000000 8.688499 0.000000
								}
							}
						}
					}
				}
				JOINT newVegas:Left_Collar
				{
					OFFSET 18.625099 8.655502 8.828100
					CHANNELS 3 Xrotation Yrotation Zrotation
					JOINT newVegas:Left_Collar1
					{
						OFFSET 14.783401 10.540405 -1.259500
						CHANNELS 3 Xrotation Yrotation Zrotation
						End Site
						{
							OFFSET 0.000000 18.199875 0.000000
						}
					}
				}
				JOINT newVegas:Collar_Back
				{
					OFFSET 0.000000 15.630707 -20.132601
					CHANNELS 3 Xrotation Yrotation Zrotation
					End Site
					{
						OFFSET 0.000000 22.523010 0.000000
					}
				}
				JOINT newVegas:Left_Peck
				{
					OFFSET 17.239599 -5.132599 25.482599
					CHANNELS 3 Xrotation Yrotation Zrotation
					End Site
					{
						OFFSET 0.000000 22.523010 0.000000
					}
				}
				JOINT newVegas:Right_Peck
				{
					OFFSET -17.239599 -5.132202 25.482599
					CHANNELS 3 Xrotation Yrotation Zrotation
					End Site
					{
						OFFSET 0.000000 22.523010 0.000000
					}
				}
				JOINT newVegas:Right_Collar
				{
					OFFSET -18.625099 8.655792 8.828100
					CHANNELS 3 Xrotation Yrotation Zrotation
					JOINT newVegas:Right_Collar1
					{
						OFFSET -14.783401 10.539993 -1.259500
						CHANNELS 3 Xrotation Yrotation Zrotation
						End Site
						{
							OFFSET 0.000000 18.199631 0.000000
						}
					}
				}
			}
		}
		JOINT newVegas:Belly
		{
			OFFSET 0.000000 -6.540398 9.014299
			CHANNELS 3 Xrotation Yrotation Zrotation
			End Site
			{
				OFFSET 0.000000 11.566666 0.000000
			}
		}
	}
	JOINT newVegas:ElvisFacialAnim_Joint
	{
		OFFSET 1.000000 -95.330101 -8.825800
		CHANNELS 3 Xrotation Yrotation Zrotation
		End Site
		{
			OFFSET 0.000000 35.315800 0.000000
		}
	}
}
MOTION
Frames: 4
Frame Time: 0.016667
0.367300 204.581284 5.054642 -4.562480 4.962991 3.967412 0.000001 0.000000 0.000000 -8.329375 15.724593 10.224704 13.443135 -8.308853 -0.426233 -2.912916 0.723884 -7.681101 -0.000000 0.000002 0.000000 0.000000 -0.000001 -0.000000 -0.089124 -10.288930 -6.289704 25.630437 6.216372 0.295636 -30.155657 -1.863526 5.180105 -0.000002 -0.000000 0.000000 -0.000001 -0.000000 0.000000 4.647162 -0.743931 1.573722 9.932385 -0.680240 3.008162 9.936598 -0.617924 3.002060 -0.217989 0.701686 -2.176400 -0.217903 0.701687 -2.176403 -0.000000 0.000000 -0.000000 -0.217945 0.701683 -2.176401 -0.217953 0.701691 -2.176402 -0.000002 -0.000000 0.000000 -0.000000 0.000000 -0.000000 -0.221754 14.341896 -11.465857 4.441026 -10.208752 -60.164493 0.000009 -50.304446 0.000014 20.413446 -0.668117 -4.134513 -3.500356 23.141801 9.972876 -2.408850 12.775491 10.381854 -0.000002 -0.000000 -0.000003 0.080932 1.054703 -8.775023 0.139270 1.380648 -11.520060 -0.000005 0.000000 -0.000000 0.080637 1.052799 -8.759036 0.139659 1.382520 -11.536057 0.000004 0.000001 -0.000000 0.080932 1.054707 -8.775018 0.139278 1.380630 -11.520057 0.000001 -0.000002 0.000001 0.683445 5.064134 -8.296774 0.133624 -2.674919 -12.020569 0.000000 -0.000003 0.000000 -0.000000 0.000003 -0.000001 -0.000000 0.000003 -0.000001 -0.000000 0.000003 -0.000001 0.000001 -0.000001 -0.000001 0.000001 0.000000 -0.000001 0.000001 -0.000001 -0.000001 0.000001 0.000000 -0.000001 1.119628 3.440113 7.346930 -5.089671 8.252990 56.488472 0.000013 38.764530 -0.000032 3.115011 -7.514415 -6.985644 -7.604776 -2.521701 -16.076746 4.602790 -15.232182 -8.617158 0.000001 -0.000005 -0.000001 0.672569 -2.988255 25.363102 0.151858 -1.448115 11.972160 0.000003 -0.000000 -0.000002 0.672572 -2.988243 25.363103 0.151853 -1.448116 11.972155 -0.000001 0.000001 0.000002 0.672571 -2.988246 25.363102 0.151855 -1.448110 11.972172 0.000000 -0.000001 -0.000001 0.672573 -2.988272 25.363105 0.151858 -1.448101 11.972179 -0.000003 -0.000002 0.000001 -0.000000 -0.000001 0.000001 -0.000000 -0.000001 0.000001 -0.000000 -0.000001 0.000000 -0.000000 0.000000 -0.000001 -0.000000 0.000000 -0.000001 -0.000000 0.000000 -0.000001 -0.000000 -0.000000 -0.000001 0.000002 -0.000000 -0.000000 0.000002 -0.000000 -0.000000 0.000002 -0.000000 -0.000000 0.000002 -0.000000 -0.000000 0.000002 -0.000000 -0.000000 0.000002 -0.000000 -0.000000 0.000002 -0.000000 -0.000000 -0.000000 -0.000000 -0.000000 0.000001 0.000000 0.000000 
0.347394 204.537140 5.005749 -4.311532 4.965472 3.957982 0.000000 -0.000000 0.000000 -8.825585 15.572210 10.240786 13.883873 -8.305938 -0.422973 -3.174987 0.746532 -7.606085 -0.000000 -0.000000 0.000000 0.000000 -0.000001 -0.000001 -0.351399 -10.274914 -6.273957 25.656952 6.208206 0.295234 -30.308213 -1.860010 5.110555 -0.000000 0.000000 -0.000000 0.000004 0.000000 -0.000000 4.618489 -0.739300 1.573845 9.886747 -0.664537 3.002675 9.891312 -0.602347 2.995067 -0.238350 0.730154 -2.225304 -0.238377 0.730155 -2.225308 0.000003 -0.000000 -0.000000 -0.238355 0.730148 -2.225299 -0.238350 0.730176 -2.225306 0.000001 -0.000001 -0.000000 0.000003 -0.000000 0.000000 -0.219945 14.506518 -11.612864 4.361431 -10.445357 -59.944663 -0.000006 -50.526318 -0.000026 20.043450 -0.258919 -4.095669 -3.500365 23.141796 9.972890 -2.408855 12.775495 10.381856 -0.000001 -0.000000 -0.000005 0.080932 1.054709 -8.775010 0.139261 1.380630 -11.520083 -0.000003 0.000000 0.000001 0.080635 1.052797 -8.759039 0.139656 1.382528 -11.536046 0.000002 0.000001 0.000000 0.080926 1.054712 -8.775004 0.139273 1.380619 -11.520084 0.000000 -0.000002 -0.000001 0.683433 5.064149 -8.296750 0.133619 -2.674920 -12.020546 0.000002 -0.000005 0.000001 -0.000000 0.000003 -0.000002 -0.000000 0.000003 -0.000002 -0.000000 0.000003 -0.000003 -0.000001 0.000000 -0.000000 -0.000001 0.000000 0.000000 -0.000001 0.000000 -0.000000 -0.000000 -0.000001 0.000000 1.111065 3.468511 7.163200 -4.424845 9.153714 56.002814 0.000007 39.178628 -0.000012 2.112974 -7.565642 -7.684064 -7.604776 -2.521705 -16.076766 4.602785 -15.232189 -8.617205 0.000001 -0.000003 0.000001 0.672569 -2.988272 25.363062 0.151858 -1.448112 11.972161 -0.000001 0.000002 -0.000000 0.672570 -2.988262 25.363062 0.151857 -1.448109 11.972167 0.000001 -0.000000 -0.000002 0.672569 -2.988249 25.363084 0.151860 -1.448117 11.972142 -0.000002 -0.000001 -0.000001 0.672571 -2.988277 25.363071 0.151855 -1.448112 11.972160 -0.000003 -0.000002 0.000001 -0.000002 -0.000004 0.000001 -0.000002 -0.000001 0.000000 -0.000002 -0.000004 0.000001 0.000002 -0.000001 -0.000002 0.000002 0.000000 -0.000001 0.000002 -0.000001 -0.000002 0.000002 -0.000000 -0.000002 0.000000 -0.000001 0.000000 0.000000 -0.000001 0.000000 0.000000 -0.000001 0.000000 0.000000 -0.000001 0.000000 0.000000 -0.000001 0.000000 0.000000 -0.000001 0.000000 0.000000 -0.000001 0.000000 -0.000000 0.000000 -0.000000 0.000000 -0.000000 0.000000 
0.333568 204.486465 4.952866 -4.048782 4.987881 3.951314 0.000001 0.000000 0.000000 -9.365837 15.417180 10.258268 14.453088 -8.130725 -0.409585 -3.543633 0.782861 -7.560109 -0.000000 -0.000001 -0.000000 -0.000000 0.000001 -0.000000 -0.634846 -10.260020 -6.262054 25.712816 6.186580 0.294352 -30.487611 -1.857534 5.037484 -0.000000 0.000000 -0.000000 0.000002 0.000000 -0.000000 4.586212 -0.737848 1.568427 9.837529 -0.656225 2.999171 9.842315 -0.594122 2.990733 -0.243757 0.758540 -2.277787 -0.243747 0.758542 -2.277781 0.000001 0.000000 -0.000000 -0.243743 0.758551 -2.277784 -0.243742 0.758533 -2.277782 -0.000002 -0.000001 -0.000000 0.000001 0.000000 -0.000000 -0.217723 14.595749 -11.694879 4.265774 -10.605528 -59.786312 -0.000004 -50.764100 -0.000001 19.817292 0.066161 -4.103485 -3.500359 23.141808 9.972890 -2.408851 12.775494 10.381848 -0.000000 -0.000001 -0.000001 0.080924 1.054721 -8.775001 0.139272 1.380627 -11.520083 -0.000005 -0.000001 0.000001 0.080634 1.052808 -8.759025 0.139661 1.382513 -11.536057 -0.000005 0.000000 0.000002 0.080933 1.054711 -8.775003 0.139273 1.380627 -11.520095 0.000004 -0.000001 0.000001 0.683437 5.064141 -8.296770 0.133619 -2.674901 -12.020526 0.000001 -0.000002 0.000001 -0.000001 -0.000001 0.000002 -0.000001 -0.000001 0.000002 -0.000001 -0.000001 0.000002 0.000001 -0.000001 -0.000000 0.000001 0.000000 -0.000000 0.000001 -0.000001 -0.000000 0.000001 -0.000000 0.000000 1.104805 3.548996 6.940644 -3.653391 10.119991 55.385242 0.000010 39.770737 -0.000021 0.971889 -7.983117 -7.726969 -7.604774 -2.521703 -16.076761 4.602780 -15.232188 -8.617205 -0.000000 -0.000001 -0.000002 0.672571 -2.988263 25.363069 0.151854 -1.448117 11.972180 0.000000 -0.000001 -0.000000 0.672574 -2.988256 25.363071 0.151853 -1.448111 11.972195 -0.000002 -0.000000 -0.000002 0.672572 -2.988251 25.363076 0.151854 -1.448128 11.972169 0.000002 0.000001 -0.000002 0.672574 -2.988277 25.363072 0.151862 -1.448110 11.972174 -0.000002 -0.000000 -0.000002 0.000002 -0.000001 -0.000001 0.000000 -0.000001 -0.000001 0.000002 -0.000001 -0.000001 0.000002 0.000001 0.000002 0.000003 0.000002 0.000001 0.000002 0.000001 0.000002 0.000003 0.000002 0.000001 -0.000000 -0.000000 0.000000 -0.000000 -0.000000 0.000000 -0.000000 -0.000000 0.000000 -0.000000 -0.000000 0.000000 -0.000000 -0.000000 0.000000 -0.000000 -0.000000 0.000000 -0.000000 -0.000000 0.000000 -0.000000 -0.000000 -0.000000 0.000001 0.000000 0.000000 
0.324626 204.429581 4.890186 -3.774025 5.035472 3.949290 -0.000000 -0.000000 0.000000 -9.941204 15.276843 10.269903 15.170719 -7.636050 -0.378916 -4.019844 0.837400 -7.578798 -0.000000 -0.000000 -0.000000 -0.000000 0.000001 -0.000000 -0.955422 -10.242572 -6.253893 25.815856 6.144807 0.292732 -30.690731 -1.854252 4.955435 -0.000001 0.000000 -0.000000 -0.000000 -0.000000 -0.000000 4.553289 -0.739191 1.557538 9.789341 -0.654193 2.995627 9.794233 -0.592126 2.986812 -0.242071 0.786179 -2.330872 -0.242077 0.786176 -2.330881 0.000003 0.000001 -0.000000 -0.242066 0.786173 -2.330875 -0.241919 0.786176 -2.330880 0.000001 -0.000000 -0.000000 0.000003 0.000001 -0.000000 -0.216478 14.635956 -11.728231 4.166837 -10.728388 -59.653663 -0.000004 -51.016606 0.000002 19.677579 0.328040 -4.160751 -3.500369 23.141799 9.972899 -2.408852 12.775496 10.381854 0.000001 0.000003 -0.000003 0.080924 1.054709 -8.775022 0.139268 1.380629 -11.520074 -0.000002 -0.000000 0.000001 0.080633 1.052805 -8.759027 0.139661 1.382508 -11.536063 0.000001 0.000001 -0.000001 0.080932 1.054711 -8.775013 0.139270 1.380621 -11.520081 0.000001 -0.000001 0.000000 0.683435 5.064142 -8.296781 0.133618 -2.674924 -12.020565 0.000004 0.000003 -0.000000 -0.000000 -0.000001 -0.000003 -0.000000 -0.000001 -0.000003 -0.000000 -0.000001 -0.000003 -0.000000 0.000001 0.000001 -0.000000 0.000000 0.000002 -0.000000 0.000001 0.000001 -0.000000 -0.000000 0.000002 1.100249 3.659959 6.697158 -2.825911 11.105693 54.696151 0.000007 40.467150 -0.000019 -0.149458 -8.609117 -7.429769 -7.604776 -2.521700 -16.076754 4.602790 -15.232184 -8.617209 0.000002 -0.000003 0.000001 0.672570 -2.988267 25.363076 0.151848 -1.448116 11.972161 -0.000002 0.000000 -0.000000 0.672574 -2.988259 25.363071 0.151855 -1.448115 11.972152 0.000003 0.000003 0.000001 0.672567 -2.988256 25.363079 0.151857 -1.448112 11.972162 0.000002 0.000001 -0.000002 0.672569 -2.988278 25.363072 0.151852 -1.448108 11.972169 0.000003 -0.000002 -0.000001 -0.000000 -0.000000 0.000000 -0.000000 -0.000001 -0.000001 -0.000000 -0.000000 0.000000 0.000000 0.000000 0.000001 0.000001 0.000000 0.000001 0.000000 0.000000 0.000001 0.000001 -0.000000 0.000001 -0.000001 0.000001 0.000000 -0.000001 0.000001 0.000000 -0.000001 0.000001 0.000000 -0.000001 0.000001 0.000000 -0.000001 0.000001 0.000000 -0.000001 0.000001 0.000000 -0.000001 0.000001 0.000000 -0.000000 0.000000 0.000000 -0.000000 -0.000000 0.000000 
